<svg width="130" height="16" viewBox="0 0 130 16" fill="none" xmlns="http://www.w3.org/2000/svg">
<path d="M13.8232 0.715332H18.8545V7.06055H17.5967C16.7731 7.06055 16.1667 6.97445 15.7773 6.80225C15.388 6.62256 15.0811 6.42415 14.8564 6.20703C14.6393 5.98242 14.4521 5.69043 14.2949 5.33105C13.9805 4.59733 13.8232 3.5791 13.8232 2.27637V0.715332ZM6.55713 0.715332H12.5991V16H6.55713V0.715332ZM0.268066 0.715332H5.29932V2.27637C5.29932 4.20052 4.95117 5.51074 4.25488 6.20703C3.68587 6.77604 2.7762 7.06055 1.52588 7.06055H0.268066V0.715332ZM29.2463 0.715332H35.4792V4.96045H34.3112C32.2822 4.96045 30.8971 4.64225 30.1559 4.00586C29.5495 3.48177 29.2463 2.63574 29.2463 1.46777V0.715332ZM21.2614 0.715332H27.3034V6.86963H31.8068V9.80078H27.3034V15.9775H21.2614V0.715332ZM29.235 14.9106C29.235 13.3608 30.1335 12.3089 31.9303 11.7549C32.6191 11.5452 33.5063 11.4404 34.592 11.4404H35.4792V16H29.235V14.9106ZM46.2977 0.715332H47.3084C50.0636 0.715332 51.707 1.64746 52.2386 3.51172C52.4183 4.12565 52.5081 4.82943 52.5081 5.62305V16H46.2977V0.715332ZM38.0096 5.62305C38.0096 3.96842 38.3877 2.75553 39.1439 1.98438C39.9749 1.13835 41.3301 0.715332 43.2093 0.715332H44.2201V16H38.0096V5.62305ZM72.1426 0.704102H73.1533C75.9085 0.704102 77.5557 1.63997 78.0947 3.51172C78.2669 4.11816 78.353 4.8182 78.353 5.61182V16H72.1426V0.704102ZM63.8096 0.704102H70.0537V16H63.8096V0.704102ZM55.4541 0.704102H61.6982V16H55.4541V0.704102ZM89.5309 5.47705C89.5309 3.79997 89.9577 2.59082 90.8112 1.84961C91.6872 1.09342 93.091 0.715332 95.0226 0.715332H95.7077V8.79004C95.7077 12.2715 94.7119 14.5026 92.7204 15.4834C92.0241 15.8278 91.1893 16 90.216 16H89.5309V5.47705ZM86.8805 16C85.0013 16 83.6012 15.3449 82.6803 14.0347C81.8268 12.8218 81.4001 11.0736 81.4001 8.79004V0.715332H82.0851C84.0168 0.715332 85.4206 1.09342 86.2965 1.84961C87.1501 2.59082 87.5768 3.79997 87.5768 5.47705V16H86.8805ZM106.324 0.715332H112.557V4.96045H111.389C109.36 4.96045 107.975 4.64225 107.234 4.00586C106.627 3.48177 106.324 2.63574 106.324 1.46777V0.715332ZM98.3392 0.715332H104.381V6.86963H108.885V9.80078H104.381V15.9775H98.3392V0.715332ZM106.313 14.9106C106.313 13.3608 107.211 12.3089 109.008 11.7549C109.697 11.5452 110.584 11.4404 111.67 11.4404H112.557V16H106.313V14.9106ZM129.373 5.46582C129.373 7.72689 128.384 9.21305 126.408 9.92432C127.516 10.3361 128.351 11.0062 128.912 11.9346C129.399 12.7581 129.642 13.7165 129.642 14.8096V16H122.949V0.692871H123.533C125.509 0.692871 126.965 1.06722 127.901 1.81592C128.882 2.60205 129.373 3.81868 129.373 5.46582ZM115.042 0.715332H121.084V16H115.042V0.715332Z" fill="#DEFF00"/>
</svg>
