<svg width="24" height="24" viewBox="0 0 24 24" fill="none" xmlns="http://www.w3.org/2000/svg">
<g id="Group 2608">
<path id="Vector" d="M9.81946 5.23835C9.81946 4.71722 10.0493 4.21744 10.4585 3.84895C10.8677 3.48045 11.4226 3.27344 12.0013 3.27344C12.5799 3.27344 13.1349 3.48045 13.5441 3.84895C13.9532 4.21744 14.1831 4.71722 14.1831 5.23835C15.4359 5.77185 16.5039 6.60232 17.2726 7.64075C18.0413 8.67918 18.4818 9.88642 18.5467 11.1331L18.5452 15.5988C18.6273 16.2096 18.8675 16.7945 19.2464 17.3064C19.6254 17.8184 20.1325 18.243 20.727 18.5462H3.27246C3.86694 18.243 4.37407 17.8184 4.75303 17.3064C5.13199 16.7945 5.37218 16.2096 5.45428 15.5988L5.45583 11.1331C5.5208 9.88642 5.96125 8.67918 6.72996 7.64075C7.49866 6.60232 8.56665 5.77185 9.81946 5.23835Z" stroke="#F0F0F0" stroke-width="1.75" stroke-linecap="round" stroke-linejoin="round"/>
<path id="Vector_2" d="M9.42578 18.5469V19.404C9.42578 20.086 9.6967 20.7401 10.1789 21.2223C10.6612 21.7045 11.3152 21.9754 11.9972 21.9754C12.6792 21.9754 13.3332 21.7045 13.8155 21.2223C14.2977 20.7401 14.5686 20.086 14.5686 19.404V18.5469" stroke="#F0F0F0" stroke-width="1.75" stroke-linecap="round" stroke-linejoin="round"/>
</g>
</svg>
