<svg width="100%" height="100%" viewBox="0 0 24 24" fill="none" xmlns="http://www.w3.org/2000/svg">
<path d="M20.75 11.8542C20.7536 13.2291 20.4324 14.5853 19.8125 15.8125C19.0775 17.2831 17.9477 18.52 16.5494 19.3847C15.1512 20.2494 13.5398 20.7077 11.8958 20.7084C10.521 20.7119 9.1647 20.3907 7.9375 19.7709L2 21.75L3.97917 15.8125C3.3593 14.5853 3.03808 13.2291 3.04167 11.8542C3.0423 10.2102 3.50064 8.59883 4.36533 7.2006C5.23003 5.80237 6.46693 4.6725 7.9375 3.93753C9.1647 3.31767 10.521 2.99645 11.8958 3.00003H12.4167C14.5879 3.11981 16.6386 4.03624 18.1762 5.57384C19.7138 7.11144 20.6302 9.16217 20.75 11.3334V11.8542Z" fill="#DEFF00" stroke="#DEFF00" stroke-width="1.75" stroke-linecap="round" stroke-linejoin="round"/>
</svg>
