<svg width="100%" height="100%" viewBox="0 0 27 27" fill="none" xmlns="http://www.w3.org/2000/svg">
<path d="M22.75 13.8542C22.7536 15.2291 22.4324 16.5853 21.8125 17.8125C21.0775 19.2831 19.9477 20.52 18.5494 21.3847C17.1512 22.2494 15.5398 22.7077 13.8958 22.7084C12.521 22.7119 11.1647 22.3907 9.9375 21.7709L4 23.75L5.97917 17.8125C5.3593 16.5853 5.03808 15.2291 5.04167 13.8542C5.0423 12.2102 5.50064 10.5988 6.36533 9.2006C7.23003 7.80237 8.46693 6.6725 9.9375 5.93753C11.1647 5.31767 12.521 4.99645 13.8958 5.00003H14.4167C16.5879 5.11981 18.6386 6.03624 20.1762 7.57384C21.7138 9.11144 22.6302 11.1622 22.75 13.3334V13.8542Z" stroke="currentColor" stroke-width="1.75" stroke-linecap="round" stroke-linejoin="round"/>
</svg>
