<svg width="20" height="19" viewBox="0 0 20 19" fill="none" xmlns="http://www.w3.org/2000/svg">
  <g id="Frame" clip-path="url(#clip0_472_5236)">
    <g id="Group 3226">
      <path id="Vector"
        d="M4.46651 5.72302H5.23291C5.63944 5.72302 6.02931 5.56153 6.31676 5.27408C6.60422 4.98662 6.76571 4.59675 6.76571 4.19023C6.76571 3.98697 6.84646 3.79203 6.99018 3.6483C7.13391 3.50457 7.32885 3.42383 7.53211 3.42383H12.1305C12.3338 3.42383 12.5287 3.50457 12.6724 3.6483C12.8162 3.79203 12.8969 3.98697 12.8969 4.19023C12.8969 4.59675 13.0584 4.98662 13.3458 5.27408C13.6333 5.56153 14.0232 5.72302 14.4297 5.72302H15.1961C15.6026 5.72302 15.9925 5.88452 16.28 6.17197C16.5674 6.45943 16.7289 6.8493 16.7289 7.25582V14.1534C16.7289 14.5599 16.5674 14.9498 16.28 15.2373C15.9925 15.5247 15.6026 15.6862 15.1961 15.6862H4.46651C4.05999 15.6862 3.67012 15.5247 3.38266 15.2373C3.09521 14.9498 2.93372 14.5599 2.93372 14.1534V7.25582C2.93372 6.8493 3.09521 6.45943 3.38266 6.17197C3.67012 5.88452 4.05999 5.72302 4.46651 5.72302Z"
        fill="#6B6B6B" stroke="#6B6B6B" stroke-width="1.5" stroke-linecap="round" stroke-linejoin="round" />
      <path id="Vector_2"
        d="M7.5321 10.3207C7.5321 10.9305 7.77434 11.5153 8.20552 11.9465C8.63671 12.3776 9.22152 12.6199 9.8313 12.6199C10.4411 12.6199 11.0259 12.3776 11.4571 11.9465C11.8883 11.5153 12.1305 10.9305 12.1305 10.3207C12.1305 9.7109 11.8883 9.12609 11.4571 8.6949C11.0259 8.26372 10.4411 8.02148 9.8313 8.02148C9.22152 8.02148 8.63671 8.26372 8.20552 8.6949C7.77434 9.12609 7.5321 9.7109 7.5321 10.3207Z"
        fill="#6B6B6B" stroke="#ECECEC" stroke-linecap="round" stroke-linejoin="round" />
      <path id="Vector 202" d="M7.99194 5.26367L11.6707 5.26367" stroke="#ECECEC" stroke-linecap="round" />
    </g>
  </g>
  <defs>
    <clipPath id="clip0_472_5236">
      <rect width="18.3936" height="18.3936" fill="white" transform="translate(0.634521 0.357422)" />
    </clipPath>
  </defs>
</svg>