<svg width="32" height="32" viewBox="0 0 32 32" fill="none" xmlns="http://www.w3.org/2000/svg">
<circle cx="16.05" cy="16.05" r="14.05" fill="#ECECEC"/>
<path fill-rule="evenodd" clip-rule="evenodd" d="M10.8336 12.3617H11.6C12.0065 12.3617 12.3964 12.2002 12.6838 11.9128C12.9713 11.6253 13.1328 11.2354 13.1328 10.8289C13.1328 10.6256 13.2135 10.4307 13.3572 10.287C13.501 10.1432 13.6959 10.0625 13.8992 10.0625H18.4976C18.7008 10.0625 18.8958 10.1432 19.0395 10.287C19.1832 10.4307 19.264 10.6256 19.264 10.8289C19.264 11.2354 19.4255 11.6253 19.7129 11.9128C20.0004 12.2002 20.3902 12.3617 20.7968 12.3617H21.5632C21.9697 12.3617 22.3596 12.5232 22.647 12.8106C22.9345 13.0981 23.096 13.488 23.096 13.8945V20.7921C23.096 21.1986 22.9345 21.5885 22.647 21.8759C22.3596 22.1634 21.9697 22.3249 21.5632 22.3249H10.8336C10.4271 22.3249 10.0372 22.1634 9.74973 21.8759C9.46227 21.5885 9.30078 21.1986 9.30078 20.7921V13.8945C9.30078 13.488 9.46227 13.0981 9.74973 12.8106C10.0372 12.5232 10.4271 12.3617 10.8336 12.3617ZM14.2183 14.9839C14.7433 14.459 15.4552 14.1641 16.1976 14.1641C16.94 14.1641 17.652 14.459 18.177 14.9839C18.7019 15.5089 18.9968 16.2209 18.9968 16.9633C18.9968 17.7057 18.7019 18.4176 18.177 18.9426C17.652 19.4675 16.94 19.7625 16.1976 19.7625C15.4552 19.7625 14.7433 19.4675 14.2183 18.9426C13.6934 18.4176 13.3984 17.7057 13.3984 16.9633C13.3984 16.2209 13.6934 15.5089 14.2183 14.9839ZM16.1976 15.1641C15.7205 15.1641 15.2628 15.3536 14.9254 15.691C14.588 16.0284 14.3984 16.4861 14.3984 16.9633C14.3984 17.4404 14.588 17.8981 14.9254 18.2355C15.2628 18.5729 15.7205 18.7625 16.1976 18.7625C16.6748 18.7625 17.1324 18.5729 17.4699 18.2355C17.8073 17.8981 17.9968 17.4404 17.9968 16.9633C17.9968 16.4861 17.8073 16.0284 17.4699 15.691C17.1324 15.3536 16.6748 15.1641 16.1976 15.1641ZM14.3594 11.3984C14.0832 11.3984 13.8594 11.6223 13.8594 11.8984C13.8594 12.1746 14.0832 12.3984 14.3594 12.3984H18.0381C18.3142 12.3984 18.5381 12.1746 18.5381 11.8984C18.5381 11.6223 18.3142 11.3984 18.0381 11.3984H14.3594Z" fill="#6B6B6B"/>
</svg>
