<svg width="100%" height="100%" viewBox="0 0 24 24" fill="none" xmlns="http://www.w3.org/2000/svg">
<path d="M4.25 11.5H2L12.125 1.375L22.25 11.5H20" stroke="#F0F0F0" stroke-width="1.75" stroke-linecap="round" stroke-linejoin="round"/>
<path d="M4.25 11.5V19.375C4.25 19.9717 4.48705 20.544 4.90901 20.966C5.33097 21.3879 5.90326 21.625 6.5 21.625H17.75C18.3467 21.625 18.919 21.3879 19.341 20.966C19.7629 20.544 20 19.9717 20 19.375V11.5" stroke="#F0F0F0" stroke-width="1.75" stroke-linecap="round" stroke-linejoin="round"/>
<path d="M8.75 21.625V14.875C8.75 14.2783 8.98705 13.706 9.40901 13.284C9.83097 12.8621 10.4033 12.625 11 12.625H13.25C13.8467 12.625 14.419 12.8621 14.841 13.284C15.2629 13.706 15.5 14.2783 15.5 14.875V21.625" stroke="#F0F0F0" stroke-width="1.75" stroke-linecap="round" stroke-linejoin="round"/>
</svg>
