<svg width="100%" height="100%" viewBox="0 0 27 27" fill="none" xmlns="http://www.w3.org/2000/svg">
<g clip-path="url(#clip0_381_2009)">
<path d="M5.625 13.5H3.375L13.5 3.375L23.625 13.5H21.375" fill="currentColor"/>
<path d="M5.625 13.5H3.375L13.5 3.375L23.625 13.5H21.375" stroke="currentColor" stroke-width="1.75" stroke-linecap="round" stroke-linejoin="round"/>
<path d="M5.625 13.5V21.375C5.625 21.9717 5.86205 22.544 6.28401 22.966C6.70597 23.3879 7.27826 23.625 7.875 23.625H19.125C19.7217 23.625 20.294 23.3879 20.716 22.966C21.1379 22.544 21.375 21.9717 21.375 21.375V13.5" fill="currentColor"/>
<path d="M5.625 13.5V21.375C5.625 21.9717 5.86205 22.544 6.28401 22.966C6.70597 23.3879 7.27826 23.625 7.875 23.625H19.125C19.7217 23.625 20.294 23.3879 20.716 22.966C21.1379 22.544 21.375 21.9717 21.375 21.375V13.5" stroke="currentColor" stroke-width="1.75" stroke-linecap="round" stroke-linejoin="round"/>
<path d="M10.125 23.625V16.875C10.125 16.2783 10.3621 15.706 10.784 15.284C11.206 14.8621 11.7783 14.625 12.375 14.625H14.625C15.2217 14.625 15.794 14.8621 16.216 15.284C16.6379 15.706 16.875 16.2783 16.875 16.875V23.625" fill="transparent"/>
<path d="M10.125 23.625V16.875C10.125 16.2783 10.3621 15.706 10.784 15.284C11.206 14.8621 11.7783 14.625 12.375 14.625H14.625C15.2217 14.625 15.794 14.8621 16.216 15.284C16.6379 15.706 16.875 16.2783 16.875 16.875V23.625" stroke="currentColor" stroke-width="1.75" stroke-linecap="round" stroke-linejoin="round"/>
</g>
<defs>
<clipPath id="clip0_381_2009">
<rect width="27" height="27" fill="white"/>
</clipPath>
</defs>
</svg>
