<svg width="100%" height="100%" viewBox="0 0 24 24" fill="none" xmlns="http://www.w3.org/2000/svg">
<path fill-rule="evenodd" clip-rule="evenodd" d="M2 11.5H4.25V19.375C4.25 19.9717 4.48705 20.544 4.90901 20.966C5.33097 21.3879 5.90326 21.625 6.5 21.625H8.75V14.875C8.75 14.2783 8.98705 13.706 9.40901 13.284C9.83097 12.8621 10.4033 12.625 11 12.625H13.25C13.8467 12.625 14.419 12.8621 14.841 13.284C15.2629 13.706 15.5 14.2783 15.5 14.875V21.625H17.75C18.3467 21.625 18.919 21.3879 19.341 20.966C19.7629 20.544 20 19.9717 20 19.375V11.5H22.25L12.125 1.375L2 11.5Z" fill="#DEFF00"/>
<path d="M4.25 11.5H5.125C5.125 11.0168 4.73325 10.625 4.25 10.625V11.5ZM2 11.5L1.38128 10.8813C1.13103 11.1315 1.05617 11.5079 1.19161 11.8348C1.32704 12.1618 1.6461 12.375 2 12.375V11.5ZM4.90901 20.966L5.52773 20.3473H5.52773L4.90901 20.966ZM8.75 21.625V22.5C9.23325 22.5 9.625 22.1082 9.625 21.625H8.75ZM9.40901 13.284L8.79029 12.6653L9.40901 13.284ZM15.5 21.625H14.625C14.625 22.1082 15.0168 22.5 15.5 22.5V21.625ZM20 11.5V10.625C19.5168 10.625 19.125 11.0168 19.125 11.5H20ZM22.25 11.5V12.375C22.6039 12.375 22.923 12.1618 23.0584 11.8348C23.1938 11.5079 23.119 11.1315 22.8687 10.8813L22.25 11.5ZM12.125 1.375L12.7437 0.756282C12.402 0.414573 11.848 0.414573 11.5063 0.756282L12.125 1.375ZM4.25 10.625H2V12.375H4.25V10.625ZM5.125 19.375V11.5H3.375V19.375H5.125ZM5.52773 20.3473C5.26987 20.0894 5.125 19.7397 5.125 19.375H3.375C3.375 20.2038 3.70424 20.9987 4.29029 21.5847L5.52773 20.3473ZM6.5 20.75C6.13533 20.75 5.78559 20.6051 5.52773 20.3473L4.29029 21.5847C4.87634 22.1708 5.6712 22.5 6.5 22.5V20.75ZM8.75 20.75H6.5V22.5H8.75V20.75ZM7.875 14.875V21.625H9.625V14.875H7.875ZM8.79029 12.6653C8.20424 13.2513 7.875 14.0462 7.875 14.875H9.625C9.625 14.5103 9.76987 14.1606 10.0277 13.9027L8.79029 12.6653ZM11 11.75C10.1712 11.75 9.37634 12.0792 8.79029 12.6653L10.0277 13.9027C10.2856 13.6449 10.6353 13.5 11 13.5V11.75ZM13.25 11.75H11V13.5H13.25V11.75ZM15.4597 12.6653C14.8737 12.0792 14.0788 11.75 13.25 11.75V13.5C13.6147 13.5 13.9644 13.6449 14.2223 13.9027L15.4597 12.6653ZM16.375 14.875C16.375 14.0462 16.0458 13.2513 15.4597 12.6653L14.2223 13.9027C14.4801 14.1606 14.625 14.5103 14.625 14.875H16.375ZM16.375 21.625V14.875H14.625V21.625H16.375ZM17.75 20.75H15.5V22.5H17.75V20.75ZM18.7223 20.3473C18.4644 20.6051 18.1147 20.75 17.75 20.75V22.5C18.5788 22.5 19.3737 22.1708 19.9597 21.5847L18.7223 20.3473ZM19.125 19.375C19.125 19.7397 18.9801 20.0894 18.7223 20.3473L19.9597 21.5847C20.5458 20.9987 20.875 20.2038 20.875 19.375H19.125ZM19.125 11.5V19.375H20.875V11.5H19.125ZM22.25 10.625H20V12.375H22.25V10.625ZM11.5063 1.99372L21.6313 12.1187L22.8687 10.8813L12.7437 0.756282L11.5063 1.99372ZM2.61872 12.1187L12.7437 1.99372L11.5063 0.756282L1.38128 10.8813L2.61872 12.1187Z" fill="#DEFF00"/>
</svg>
