<svg width="100%" height="100%" viewBox="0 0 24 24" fill="none" xmlns="http://www.w3.org/2000/svg">
<path d="M13 6.875C13.5967 6.875 14.169 7.11205 14.591 7.53401C15.0129 7.95597 15.25 8.52826 15.25 9.125V22.625L9.625 19.25L4 22.625V9.125C4 8.52826 4.23705 7.95597 4.65901 7.53401C5.08097 7.11205 5.65326 6.875 6.25 6.875H13Z" stroke="#F0F0F0" stroke-width="1.75" stroke-linecap="round" stroke-linejoin="round"/>
<path d="M8.79688 3.5C8.99463 3.15747 9.27919 2.87312 9.62187 2.67562C9.96455 2.47811 10.3532 2.37442 10.7487 2.375H17.4987C18.0955 2.375 18.6678 2.61206 19.0897 3.03401C19.5117 3.45597 19.7487 4.02827 19.7487 4.625V18.125L18.6237 17.45" stroke="#F0F0F0" stroke-width="1.75" stroke-linecap="round" stroke-linejoin="round"/>
</svg>
