<svg width="100%" height="100%" viewBox="0 0 32 32" fill="none" xmlns="http://www.w3.org/2000/svg">
<g clip-path="url(#clip0_542_6418)">
<path d="M5.71434 17.3362C6.04086 19.8167 7.26405 22.0937 9.15494 23.7409C11.0458 25.3881 13.4748 26.2926 15.9871 26.2851C18.4995 26.2776 20.9229 25.3587 22.8039 23.7002C24.6849 22.0418 25.8944 19.7576 26.206 17.2752C26.5176 14.7929 25.91 12.2825 24.4969 10.214C23.0837 8.1456 20.962 6.66089 18.5288 6.03784C16.0956 5.41479 13.5178 5.69612 11.2779 6.82916C9.03801 7.9622 7.28958 9.86927 6.35993 12.1934M5.71434 5.76483L5.71434 12.1934L12.1703 12.1934" stroke="currentColor" stroke-width="1.75" stroke-linecap="round" stroke-linejoin="round"/>
</g>
<defs>
<clipPath id="clip0_542_6418">
<rect width="100%" height="100%" fill="white" transform="translate(32 32) rotate(-180)"/>
</clipPath>
</defs>
</svg>
