<svg width="24" height="24" viewBox="0 0 24 24" fill="none" xmlns="http://www.w3.org/2000/svg">
<path fill-rule="evenodd" clip-rule="evenodd" d="M21.514 12.2084C21.5387 12.1272 21.5517 12.0417 21.5517 11.9542C21.5517 11.6149 21.3556 11.3063 21.0485 11.1621L4.93645 3.59931C4.91449 3.589 4.89211 3.57961 4.86937 3.57117C4.62049 3.47871 4.3503 3.45965 4.09091 3.51625C3.83152 3.57286 3.59384 3.70274 3.4061 3.89048C3.21837 4.07821 3.08848 4.3159 3.03188 4.57529C2.97659 4.82866 2.99349 5.09233 3.08047 5.33638L5.28641 11.9542L3.08047 18.572C2.99349 18.8161 2.97659 19.0797 3.03188 19.3331C3.08848 19.5925 3.21837 19.8302 3.4061 20.0179C3.59384 20.2056 3.83152 20.3355 4.09091 20.3921C4.3503 20.4487 4.62049 20.4297 4.86937 20.3372C4.89211 20.3288 4.91449 20.3194 4.93645 20.3091L20.9626 12.7866C21.2273 12.6944 21.4342 12.4786 21.514 12.2084ZM16.7658 11.085L5.00054 5.56259L6.84136 11.085H16.7658ZM16.7408 12.835H6.83746L5.00054 18.3458L16.7408 12.835Z" fill="#6B6B6B"/>
</svg>
